<svg width="100" height="100" viewBox="0 0 100 100" fill="none" xmlns="http://www.w3.org/2000/svg">
<g clip-path="url(#clip0_32_110)">
<path d="M45.245 0.150024C35.9798 1.00039 26.5274 4.77661 19.1643 10.5707C10.3746 17.4601 4.16427 27.0304 1.46974 37.8257C0.417867 42.0199 0 45.4791 0 49.9903C0 54.5016 0.417867 57.9607 1.46974 62.1549C4.16427 72.9359 10.389 82.535 19.1643 89.41C26.6571 95.2905 36.0086 98.9947 45.5331 99.8595C47.6657 100.047 52.3343 100.047 54.4669 99.8595C68.1268 98.62 80.562 91.9035 89.1787 81.1225C93.5447 75.66 96.8156 69.03 98.5303 62.1549C99.5821 57.9607 100 54.5016 100 49.9903C100 48.4481 99.9279 46.4303 99.8559 45.5223C98.5303 31.0372 90.9942 17.8204 79.1787 9.33113C71.9452 4.12802 63.3862 0.942736 54.4669 0.121193C52.5216 -0.0517637 47.2046 -0.0373453 45.245 0.150024ZM52.5504 29.1347C55.7205 34.3378 56.4841 35.6494 59.121 40.4777C64.5821 50.4804 65.7061 53.4783 65.7061 58.1337C65.7061 66.4933 60.5331 73.0368 52.5937 74.7087C48.2421 75.6311 43.0692 74.0169 39.4524 70.6298C34.8559 66.3203 33.1268 59.2868 35.0288 52.8009C36.3112 48.477 40.9942 39.7138 49.3372 26.0214C49.6542 25.4882 49.9568 25.0558 50 25.0558C50.0432 25.0558 51.1816 26.8862 52.5504 29.1347Z" fill="#253DDD"/>
<path d="M52.5504 29.1347C55.7205 34.3378 56.4841 35.6494 59.121 40.4777C64.5821 50.4804 65.7061 53.4783 65.7061 58.1337C65.7061 66.4933 60.5331 73.0368 52.5937 74.7087C48.2421 75.6311 43.0692 74.0169 39.4524 70.6298C34.8559 66.3203 33.1268 59.2868 35.0288 52.8009C36.3112 48.477 40.9942 39.7138 49.3372 26.0214C49.6542 25.4882 49.9568 25.0558 50 25.0558C50.0432 25.0558 51.1816 26.8862 52.5504 29.1347Z" fill="#253DDD"/>
<path d="M52.5504 29.1347C55.7205 34.3378 56.4841 35.6494 59.121 40.4777C64.5821 50.4804 65.7061 53.4783 65.7061 58.1337C65.7061 66.4933 60.5331 73.0368 52.5937 74.7087C48.2421 75.6311 43.0692 74.0169 39.4524 70.6298C34.8559 66.3203 33.1268 59.2868 35.0288 52.8009C36.3112 48.477 40.9942 39.7138 49.3372 26.0214C49.6542 25.4882 49.9568 25.0558 50 25.0558C50.0432 25.0558 51.1816 26.8862 52.5504 29.1347Z" fill="#253DDD"/>
<path d="M52.5504 29.1347C55.7205 34.3378 56.4841 35.6494 59.121 40.4777C64.5821 50.4804 65.7061 53.4783 65.7061 58.1337C65.7061 66.4933 60.5331 73.0368 52.5937 74.7087C48.2421 75.6311 43.0692 74.0169 39.4524 70.6298C34.8559 66.3203 33.1268 59.2868 35.0288 52.8009C36.3112 48.477 40.9942 39.7138 49.3372 26.0214C49.6542 25.4882 49.9568 25.0558 50 25.0558C50.0432 25.0558 51.1816 26.8862 52.5504 29.1347Z" fill="white"/>
</g>
<defs>
<clipPath id="clip0_32_110">
<rect width="100" height="100" fill="white"/>
</clipPath>
</defs>
</svg>
