<svg width="16" height="16" viewBox="0 0 16 16" fill="none" xmlns="http://www.w3.org/2000/svg">
<g clip-path="url(#clip0_32_106)">
<path d="M7.23919 0.0240039C5.75677 0.160063 4.24438 0.764258 3.06628 1.6913C1.65994 2.79361 0.666282 4.32486 0.235158 6.05212C0.0668588 6.72319 0 7.27665 0 7.99845C0 8.72026 0.0668588 9.27372 0.235158 9.94479C0.666282 11.6697 1.66225 13.2056 3.06628 14.3056C4.26513 15.2465 5.76138 15.8392 7.2853 15.9775C7.62651 16.0075 8.37349 16.0075 8.7147 15.9775C10.9003 15.7792 12.8899 14.7046 14.2686 12.9796C14.9671 12.1056 15.4905 11.0448 15.7648 9.94479C15.9331 9.27372 16 8.72026 16 7.99845C16 7.7517 15.9885 7.42885 15.9769 7.28357C15.7648 4.96595 14.5591 2.85127 12.6686 1.49298C11.5112 0.660483 10.1418 0.150838 8.7147 0.0193909C8.40346 -0.00828219 7.55274 -0.00597524 7.23919 0.0240039ZM8.40807 4.66155C8.91527 5.49404 9.03746 5.7039 9.45937 6.47644C10.3331 8.07686 10.513 8.55653 10.513 9.30139C10.513 10.6389 9.6853 11.6859 8.41499 11.9534C7.71873 12.101 6.89107 11.8427 6.31239 11.3008C5.57695 10.6112 5.30029 9.48588 5.60461 8.44814C5.8098 7.75631 6.55908 6.35421 7.89395 4.16343C7.94467 4.0781 7.99308 4.00892 8 4.00892C8.00692 4.00892 8.18905 4.3018 8.40807 4.66155Z" fill="#253DDD"/>
<path d="M8.40807 4.66155C8.91527 5.49404 9.03746 5.7039 9.45937 6.47644C10.3331 8.07686 10.513 8.55653 10.513 9.30139C10.513 10.6389 9.6853 11.6859 8.41499 11.9534C7.71873 12.101 6.89107 11.8427 6.31239 11.3008C5.57695 10.6112 5.30029 9.48588 5.60461 8.44814C5.8098 7.75631 6.55908 6.35421 7.89395 4.16343C7.94467 4.0781 7.99308 4.00892 8 4.00892C8.00692 4.00892 8.18905 4.3018 8.40807 4.66155Z" fill="#253DDD"/>
<path d="M8.40807 4.66155C8.91527 5.49404 9.03746 5.7039 9.45937 6.47644C10.3331 8.07686 10.513 8.55653 10.513 9.30139C10.513 10.6389 9.6853 11.6859 8.41499 11.9534C7.71873 12.101 6.89107 11.8427 6.31239 11.3008C5.57695 10.6112 5.30029 9.48588 5.60461 8.44814C5.8098 7.75631 6.55908 6.35421 7.89395 4.16343C7.94467 4.0781 7.99308 4.00892 8 4.00892C8.00692 4.00892 8.18905 4.3018 8.40807 4.66155Z" fill="#253DDD"/>
<path d="M8.40807 4.66155C8.91527 5.49404 9.03746 5.7039 9.45937 6.47644C10.3331 8.07686 10.513 8.55653 10.513 9.30139C10.513 10.6389 9.6853 11.6859 8.41499 11.9534C7.71873 12.101 6.89107 11.8427 6.31239 11.3008C5.57695 10.6112 5.30029 9.48588 5.60461 8.44814C5.8098 7.75631 6.55908 6.35421 7.89395 4.16343C7.94467 4.0781 7.99308 4.00892 8 4.00892C8.00692 4.00892 8.18905 4.3018 8.40807 4.66155Z" fill="white"/>
</g>
<defs>
<clipPath id="clip0_32_106">
<rect width="16" height="16" fill="white"/>
</clipPath>
</defs>
</svg>
